<svg id="Laag_1" data-name="Laag 1" xmlns="http://www.w3.org/2000/svg" viewBox="0 0 620 620"><defs><style>.cls-1{fill:#1fce6d;}.cls-2{fill:#fff;}</style></defs><rect class="cls-1" x="-690" y="-328.89" width="2000" height="1217.87"/><path class="cls-2" d="M115.45,257.26h79.64v16.6H164.68v81H145.85v-81h-30.4Z"/><path class="cls-2" d="M243.17,332.86q6.56,6.56,17.57,6.56t17.37-6.56q6.34-6.56,6.34-18.13V257.26h18.69v57.47q0,12.69-5.16,22.11a35,35,0,0,1-14.71,14.43q-9.56,5-22.53,5t-22.8-5a34.79,34.79,0,0,1-14.86-14.43q-5.16-9.42-5.16-22.11V257.26h18.69v57.47Q236.61,326.31,243.17,332.86Z"/><path class="cls-2" d="M391.85,354.9,375,326a32.61,32.61,0,0,1-3.49.13h-22V354.9H330.76V257.26h40.73q19,0,29.29,8.79t10.32,24.83q0,11.43-5,19.52a30.27,30.27,0,0,1-14.44,12.14l21.48,32.36Zm-42.4-45.19h22q10.59,0,16.18-4.61t5.58-13.67q0-8.93-5.58-13.39t-16.18-4.46h-22Z"/><path class="cls-2" d="M437.18,257.26h67.37l-.14,16.32H455.87v26.36h44.22v16.32H455.87V354.9H437.18Z"/><polygon class="cls-2" points="95.11 283.71 81.8 270.4 58.73 293.46 58.73 293.46 45.42 306.78 58.73 320.09 81.8 343.16 95.11 329.84 72.05 306.78 95.11 283.71"/><polygon class="cls-2" points="524.89 283.71 538.2 270.4 561.27 293.46 561.27 293.46 574.58 306.78 561.27 320.09 538.2 343.16 524.89 329.84 547.95 306.78 524.89 283.71"/></svg>